<svg width="32" height="32" viewBox="0 0 32 32" fill="none" xmlns="http://www.w3.org/2000/svg">
<path d="M15.0224 9.8266C14.2419 10.3396 13.4466 10.8303 12.6842 11.3688C9.99304 13.268 7.77853 15.6399 5.83965 18.288C5.03895 19.3818 4.17842 20.434 3.09335 21.2683C2.83116 21.47 2.52863 21.6347 2.22206 21.7617C1.63919 22.0038 1.14573 21.8317 0.803536 21.2979C0.400836 20.6686 0.265706 19.9492 0.178308 19.2279C-0.0240505 17.5667 -0.0650602 15.8947 0.111752 14.2321C0.365204 11.8428 1.13766 9.61551 2.41501 7.57309C4.12464 4.83957 6.44874 2.79649 9.38731 1.47342C11.5205 0.513396 13.7673 0.106662 16.1109 0.152377C19.0777 0.210194 21.781 1.07005 24.3296 2.70438C21.8166 3.59718 19.356 4.47116 16.8948 5.34513C16.8948 5.36664 16.8948 5.38883 16.8948 5.41034C18.3637 5.61472 19.832 5.81977 21.3372 6.02952C21.145 6.2265 20.9829 6.40667 20.8068 6.57138C17.8884 9.30491 15.3371 12.3356 13.3478 15.816C11.5171 19.0195 10.2499 22.4286 9.71539 26.0886C9.54597 27.249 9.4774 28.4241 9.36378 29.5932C9.34698 29.7694 9.33689 29.9462 9.3221 30.1532C8.19736 29.6443 7.18422 29.0211 6.21546 28.3159C5.91427 28.0967 5.8262 27.8876 5.87999 27.5179C6.31294 24.5289 7.02893 21.6192 8.25921 18.8521C9.77926 15.4335 11.9346 12.4882 14.8416 10.111C14.9108 10.0545 14.9754 9.99266 15.0406 9.93081C15.052 9.92005 15.054 9.89921 15.0608 9.88375C15.0473 9.86425 15.0352 9.84543 15.0224 9.8266Z" fill="#9CFF3A"/>
<path d="M21.604 6.22381C22.1002 7.69814 22.5762 9.11129 23.0515 10.5238C23.0716 10.5238 23.0925 10.5238 23.1126 10.5238C23.6296 8.02151 24.1466 5.51993 24.6777 2.94775C24.9574 3.15011 25.2216 3.32289 25.4663 3.52054C28.2778 5.79019 30.1643 8.66489 30.9858 12.1863C31.9122 16.1596 31.4322 19.9654 29.3885 23.5292C28.8432 24.4798 28.1326 25.3007 27.1773 25.8761C25.8005 26.7064 24.3275 26.5525 23.1362 25.4499C22.1056 24.4966 21.5106 23.2697 21.0212 21.9883C19.7539 18.6706 19.5872 15.2809 20.3986 11.8327C20.4033 11.8119 20.3973 11.789 20.3959 11.7668C18.4201 15.7394 16.4388 23.146 21.1711 30.6023C20.3522 30.8161 19.5603 31.0407 18.7589 31.2242C18.3031 31.3291 17.8311 31.3647 17.3673 31.4353C17.1878 31.4629 17.0869 31.403 17.0062 31.2289C16.0536 29.1751 15.4304 27.0278 15.1608 24.7796C14.5262 19.5008 15.8849 14.698 18.646 10.2313C19.5112 8.83095 20.4847 7.50923 21.604 6.22381Z" fill="white"/>
<path d="M21.604 6.22381C22.1002 7.69814 22.5762 9.11129 23.0515 10.5238C23.0716 10.5238 23.0925 10.5238 23.1126 10.5238C23.6296 8.02151 24.1466 5.51993 24.6777 2.94775C24.9574 3.15011 25.2216 3.32289 25.4663 3.52054C28.2778 5.79019 30.1643 8.66489 30.9858 12.1863C31.9122 16.1596 31.4322 19.9654 29.3885 23.5292C28.8432 24.4798 28.1326 25.3007 27.1773 25.8761C25.8005 26.7064 24.3275 26.5525 23.1362 25.4499C22.1056 24.4966 21.5106 23.2697 21.0212 21.9883C19.7539 18.6706 19.5872 15.2809 20.3986 11.8327C20.4033 11.8119 20.3973 11.789 20.3959 11.7668C18.4201 15.7394 16.4388 23.146 21.1711 30.6023C20.3522 30.8161 19.5603 31.0407 18.7589 31.2242C18.3031 31.3291 17.8311 31.3647 17.3673 31.4353C17.1878 31.4629 17.0869 31.403 17.0062 31.2289C16.0536 29.1751 15.4304 27.0278 15.1608 24.7796C14.5262 19.5008 15.8849 14.698 18.646 10.2313C19.5112 8.83095 20.4847 7.50923 21.604 6.22381Z" fill="#9CFF3A"/>
</svg>
